<?xml version="1.0" standalone="no"?>
<!DOCTYPE svg PUBLIC "-//W3C//DTD SVG 20010904//EN"
 "http://www.w3.org/TR/2001/REC-SVG-20010904/DTD/svg10.dtd">
<svg version="1.0" xmlns="http://www.w3.org/2000/svg"
 width="300.000000pt" height="300.000000pt" viewBox="0 0 300.000000 300.000000"
 preserveAspectRatio="xMidYMid meet">
<metadata>
Created by potrace 1.10, written by Peter Selinger 2001-2011
</metadata>
<g transform="translate(0.000000,300.000000) scale(0.050000,-0.050000)"
fill="#ff00c8" stroke="none">
<path d="M1939 5934 c-63 -34 -102 -73 -136 -140 l-48 -94 -239 0 c-335 0
-436 -66 -436 -285 l0 -95 -396 0 c-529 0 -642 -54 -670 -324 -22 -206 -16
-2112 7 -2126 13 -9 14 -22 2 -37 -12 -14 -18 -509 -16 -1293 3 -1384 -2
-1324 116 -1434 93 -86 85 -86 2019 -86 2024 0 1908 -6 2022 113 99 105 96 36
96 2539 0 2685 14 2465 -164 2583 l-83 55 -419 6 -419 6 11 66 c34 211 -107
312 -439 312 l-242 0 -23 55 c-87 204 -338 287 -543 179z m270 -142 c75 -32
111 -83 111 -159 0 -100 39 -113 333 -113 364 0 347 14 347 -287 0 -164 -8
-253 -24 -269 -34 -34 -1658 -34 -1692 0 -35 35 -33 504 2 533 16 13 147 24
325 27 l298 6 16 55 c8 30 22 79 30 108 27 95 149 143 254 99z m-1129 -766 c0
-126 78 -232 197 -267 152 -44 1711 -16 1775 32 101 76 137 142 133 245 l-5
94 391 -5 c412 -4 458 -14 490 -98 12 -30 19 -952 19 -2377 l0 -2327 -52 -61
-52 -62 -1846 0 -1846 0 -52 62 -52 61 0 2344 c1 2190 3 2346 35 2385 59 73
92 78 484 78 l381 0 0 -104z"/>
<path d="M781 4597 c-347 -102 -341 -599 9 -697 299 -84 560 259 402 528 -80
137 -264 213 -411 169z m169 -188 c174 -83 121 -329 -70 -329 -189 0 -244 244
-73 328 77 38 64 38 143 1z"/>
<path d="M1584 4316 c-31 -31 -31 -101 0 -132 34 -34 978 -34 1012 0 31 31 31
101 0 132 -34 34 -978 34 -1012 0z"/>
<path d="M2964 4316 c-13 -13 -24 -43 -24 -66 0 -83 31 -90 394 -90 383 0 431
18 367 137 -27 51 -688 68 -737 19z"/>
<path d="M681 3479 c-213 -155 -208 -441 12 -595 273 -191 645 113 526 430
-81 212 -356 297 -538 165z m327 -181 c124 -147 -22 -343 -200 -269 -173 73
-116 331 72 331 61 0 87 -13 128 -62z"/>
<path d="M1584 3256 c-110 -110 11 -176 317 -175 309 2 405 52 308 160 -43 47
-580 60 -625 15z"/>
<path d="M2564 3256 c-38 -38 -28 -111 20 -145 38 -26 125 -31 546 -31 533 0
590 10 590 100 0 95 -27 100 -597 100 -390 0 -542 -7 -559 -24z"/>
<path d="M706 2431 c-239 -147 -238 -480 2 -621 299 -175 652 157 494 465 -97
190 -323 261 -496 156z m243 -151 c85 -32 126 -143 85 -230 -57 -120 -183
-144 -276 -52 -140 141 4 353 191 282z"/>
<path d="M1595 2198 c-48 -28 -46 -131 4 -157 81 -44 955 -27 1001 19 52 52
51 90 -4 129 -54 37 -939 46 -1001 9z"/>
<path d="M3224 2195 c-11 -14 -24 -56 -27 -94 -6 -56 -17 -71 -65 -84 -93 -24
-208 -152 -246 -271 -82 -259 116 -486 424 -486 149 0 210 -61 210 -210 0
-220 -345 -273 -451 -69 -34 66 -95 78 -151 28 -75 -68 33 -237 195 -303 76
-31 87 -44 87 -97 0 -71 31 -109 90 -109 59 0 90 38 90 111 0 56 9 65 78 86
159 48 281 256 253 432 -34 213 -203 325 -497 330 -122 2 -209 206 -129 304
109 135 340 127 415 -13 54 -101 159 -107 190 -11 26 83 -136 260 -260 284
-29 5 -42 26 -47 77 -8 86 -34 120 -93 120 -25 0 -54 -11 -66 -25z"/>
<path d="M564 1129 c-48 -34 -58 -107 -20 -145 34 -34 1038 -34 1072 0 38 38
29 132 -15 155 -68 37 -983 27 -1037 -10z"/>
<path d="M2024 1129 c-54 -38 -57 -91 -7 -136 97 -89 623 -35 623 64 0 101
-492 159 -616 72z"/>
<path d="M5345 5955 c-11 -14 -134 -252 -273 -528 l-252 -504 0 -2312 c0
-2515 -6 -2384 113 -2495 116 -109 692 -146 877 -56 159 77 263 449 152 548
-44 40 -57 112 -21 112 12 0 16 9 9 20 -7 11 2 35 19 52 28 28 31 238 26 2095
l-5 2063 -247 490 c-276 548 -271 540 -333 540 -25 0 -54 -11 -65 -25z m170
-457 c51 -103 96 -192 99 -198 3 -5 -88 -10 -204 -10 -115 0 -208 5 -205 10 3
6 50 97 104 204 55 107 102 192 105 188 4 -3 49 -90 101 -194z m251 -508 l54
-111 0 -2049 0 -2050 -160 0 -160 0 -5 2003 c-6 2210 2 2079 -123 2021 l-52
-23 0 -1999 0 -1999 -160 -1 -160 -1 0 2049 0 2049 54 111 54 110 302 0 302 0
54 -110z m54 -4523 c0 -126 -7 -152 -52 -205 l-52 -62 -306 0 -306 0 -52 62
c-45 53 -52 79 -52 205 l0 143 410 0 410 0 0 -143z"/>
</g>
</svg>
