<svg  version="1.0" xmlns="http://www.w3.org/2000/svg"  width="300.000000pt" height="300.000000pt" viewBox="0 0 300.000000 300.000000"  preserveAspectRatio="xMidYMid meet">  <g transform="translate(0.000000,300.000000) scale(0.100000,-0.100000)" fill="#0053fa" stroke="none"> <path d="M1790 2697 c-3 -3 -40 -7 -82 -10 -43 -3 -82 -8 -86 -11 -5 -3 -24 -8 -42 -11 -89 -16 -230 -75 -320 -134 -71 -47 -83 -56 -150 -118 -31 -29 -65 -53 -76 -53 -10 0 -53 -9 -94 -21 -41 -11 -83 -22 -92 -24 -19 -4 -172 -78 -203 -97 -314 -201 -489 -518 -488 -883 1 -186 43 -345 133 -504 l39 -68 -45 -163 c-48 -179 -51 -198 -30 -206 8 -3 90 15 183 40 l168 45 110 -54 c154 -77 260 -105 416 -112 145 -7 254 6 367 43 146 48 272 121 383 222 57 52 71 60 129 71 91 18 242 74 312 116 33 19 64 35 70 35 6 0 85 -20 176 -45 91 -25 171 -44 179 -41 20 8 16 39 -30 209 l-43 159 58 116 c83 165 111 282 110 462 0 326 -134 605 -388 809 -93 75 -289 176 -364 187 -20 3 -57 12 -78 18 -31 10 -216 29 -222 23z m138 -33 c40 -6 43 -9 22 -14 -14 -4 -30 -3 -37 3 -7 5 -61 7 -123 4 -60 -3 -108 -1 -105 3 6 10 184 13 243 4z m186 -40 c20 -3 36 -11 36 -16 0 -6 -8 -7 -17 -3 -10 4 -33 9 -50 12 -18 3 -33 10 -33 15 0 6 6 8 14 5 8 -3 31 -9 50 -13z m-106 -8 c19 -3 38 -8 43 -11 5 -4 17 -8 26 -10 10 -2 45 -13 78 -25 148 -53 299 -160 408 -288 29 -34 137 -206 137 -218 0 -3 6 -20 14 -37 116 -258 83 -632 -76 -880 l-31 -48 42 -154 c22 -84 41 -155 41 -158 0 -2 -70 15 -157 39 -154 42 -157 43 -182 25 -73 -52 -289 -141 -340 -141 -7 0 1 17 18 38 71 90 146 265 172 403 15 83 19 248 8 324 -57 373 -283 666 -632 820 -21 9 -50 19 -64 21 -14 3 -34 9 -43 14 -33 18 -142 34 -230 35 -56 0 -65 -2 -62 -17 2 -16 -6 -18 -58 -18 -34 0 -59 4 -56 9 4 5 29 29 58 52 37 32 48 37 39 20 -16 -29 -7 -39 15 -17 28 28 192 136 207 136 7 0 17 4 22 9 10 9 115 49 150 58 40 9 50 11 50 13 0 1 13 3 29 5 15 2 30 6 33 9 6 6 298 -1 341 -8z m-655 -320 c15 -3 37 -8 50 -10 42 -8 175 -57 232 -87 171 -88 328 -246 413 -414 175 -349 140 -729 -98 -1043 -119 -157 -316 -289 -515 -344 -67 -18 -106 -22 -245 -22 -141 -1 -177 2 -247 21 -90 25 -211 77 -269 117 -21 14 -48 26 -59 26 -11 -1 -83 -18 -160 -40 -77 -21 -141 -37 -143 -36 -1 2 16 72 39 155 l42 153 -22 36 c-164 271 -198 573 -96 863 65 186 210 371 374 476 119 77 275 135 416 157 37 5 250 -1 288 -8z"/> <path d="M1823 2573 c-35 -5 -51 -30 -31 -49 7 -6 47 -15 88 -18 41 -3 82 -7 90 -9 93 -23 118 -18 106 21 -8 23 -40 33 -146 46 -24 4 -51 7 -60 9 -8 2 -29 2 -47 0z"/> <path d="M2136 2497 c-25 -18 -7 -52 31 -62 67 -16 243 -151 298 -228 39 -54 71 -75 89 -57 19 19 -7 62 -86 143 -87 89 -130 122 -240 181 -78 42 -69 40 -92 23z"/> <path d="M1485 1851 c-16 -10 -124 -114 -240 -230 l-209 -212 -44 16 c-99 39 -242 5 -323 -76 -162 -162 -103 -438 111 -520 246 -93 498 147 414 395 l-17 48 84 84 83 83 67 -64 c46 -44 72 -63 83 -59 22 9 20 50 -4 67 -19 13 -15 19 78 111 l97 97 49 -51 c50 -52 62 -56 80 -27 9 14 -5 33 -83 111 -84 84 -92 95 -81 113 19 29 4 88 -27 113 -32 25 -79 26 -118 1z m91 -66 c5 -22 -20 -51 -227 -260 -129 -129 -236 -240 -237 -245 -2 -6 5 -33 17 -60 53 -122 2 -259 -118 -322 -103 -54 -229 -32 -307 54 -49 54 -67 101 -67 173 -1 185 191 308 365 233 l50 -21 236 236 c246 246 274 267 288 212z m27 -133 c16 -17 11 -24 -80 -115 l-97 -97 -20 20 -21 20 95 95 c52 52 97 95 101 95 3 0 13 -8 22 -18z"/> <path d="M809 1247 c-21 -14 -41 -41 -53 -69 -17 -42 -18 -52 -7 -89 35 -115 165 -150 249 -66 62 62 55 156 -15 217 -28 25 -42 30 -87 30 -39 0 -62 -6 -87 -23z m146 -62 c55 -54 16 -145 -62 -145 -45 1 -68 16 -83 55 -33 86 80 156 145 90z"/> <path d="M1747 697 c-44 -39 -57 -56 -52 -69 12 -30 41 -20 97 31 44 41 51 52 42 67 -17 29 -26 26 -87 -29z"/> <path d="M1570 580 c-70 -36 -173 -69 -262 -85 -31 -5 -38 -10 -38 -29 0 -34 18 -37 112 -16 126 27 298 105 298 134 0 12 -20 36 -29 35 -4 0 -40 -18 -81 -39z"/> </g> </svg> 