<?xml version="1.0" standalone="no"?>
<!DOCTYPE svg PUBLIC "-//W3C//DTD SVG 20010904//EN"
 "http://www.w3.org/TR/2001/REC-SVG-20010904/DTD/svg10.dtd">
<svg version="1.0" xmlns="http://www.w3.org/2000/svg"
 width="300.000000pt" height="300.000000pt" viewBox="0 0 300.000000 300.000000"
 preserveAspectRatio="xMidYMid meet">
<metadata>
Created by potrace 1.10, written by Peter Selinger 2001-2011
</metadata>
<g transform="translate(0.000000,300.000000) scale(0.050000,-0.050000)"
fill="#339cff" stroke="none">
<path d="M2607 5929 c0 -15 8 -22 19 -15 12 7 15 -8 7 -41 -11 -43 -7 -53 22
-51 20 1 25 5 10 11 -17 7 -19 21 -6 45 13 25 9 40 -17 56 -27 17 -35 16 -35
-5z"/>
<path d="M5894 5407 c-7 -7 -3 -30 9 -52 19 -37 16 -40 -31 -31 -44 9 -52 3
-52 -37 0 -26 9 -47 19 -47 11 0 15 14 8 30 -7 19 1 30 21 30 29 0 41 -24 34
-66 -2 -10 5 -12 14 -7 9 6 14 49 10 96 -7 90 -12 104 -32 84z"/>
<path d="M5498 5170 c-9 -46 -3 -111 11 -115 25 -7 31 63 7 77 -13 8 -10 19 7
30 20 13 20 17 2 18 -14 0 -26 -4 -27 -10z"/>
<path d="M5951 5141 c-8 -12 -24 -16 -37 -8 -13 7 -17 6 -9 -3 8 -9 6 -26 -4
-39 -12 -14 -12 -34 0 -52 14 -23 18 -19 19 17 0 30 8 41 23 32 14 -8 18 -5
10 7 -7 12 -2 26 12 31 14 4 19 15 12 23 -7 7 -19 4 -26 -8z"/>
<path d="M5844 5032 c8 -9 5 -35 -6 -56 -18 -34 -16 -37 15 -19 40 20 50 23
97 23 17 0 30 14 30 31 0 29 -3 29 -32 -1 -30 -29 -36 -29 -75 4 -24 19 -37
28 -29 18z"/>
<path d="M5903 4858 c-19 -51 -6 -158 20 -158 10 0 12 24 4 53 -11 44 -7 51
20 41 18 -7 33 -5 33 4 0 10 -14 23 -32 30 -18 7 -27 25 -21 42 7 17 7 30 2
30 -6 0 -17 -19 -26 -42z"/>
<path d="M2631 4769 c-53 -54 -46 -860 8 -889 43 -23 834 353 867 412 41 72
-9 109 -407 309 -435 217 -422 213 -468 168z m284 -264 c24 -14 59 -25 76 -25
17 0 26 -9 19 -20 -7 -11 7 -20 30 -20 27 0 37 -8 28 -23 -9 -14 -5 -18 9 -9
23 15 143 -45 143 -71 0 -28 -120 -99 -143 -85 -13 8 -18 6 -11 -6 7 -10 -37
-42 -97 -70 -59 -28 -103 -41 -97 -29 6 13 -2 7 -18 -12 -65 -80 -95 -12 -102
226 -3 100 2 118 27 108 25 -9 26 -6 6 14 -33 33 -32 58 3 45 15 -6 34 0 42
13 8 13 21 16 28 6 6 -9 32 -28 57 -42z"/>
<path d="M3795 4778 c-32 -18 -35 -62 -35 -449 l0 -430 47 -21 c40 -18 101 6
455 185 551 279 551 254 8 531 -426 217 -421 216 -475 184z m197 -242 c-18 31
67 -11 91 -44 7 -9 22 -12 32 -5 11 7 32 -1 46 -18 14 -17 35 -27 47 -22 24 9
76 -37 59 -53 -5 -5 7 -9 27 -7 20 2 34 -8 31 -21 -3 -14 8 -20 25 -13 21 8
30 -2 30 -31 0 -28 -13 -42 -38 -42 -21 0 -42 -9 -46 -21 -4 -12 -20 -23 -36
-26 -17 -3 -69 -26 -117 -51 -48 -24 -92 -40 -98 -33 -7 6 -28 -4 -49 -22 -61
-56 -88 -8 -63 113 11 55 16 105 10 110 -13 13 -19 154 -7 186 7 20 15 20 40
0 26 -21 29 -21 16 0z"/>
<path d="M1453 4743 c-48 -52 -49 -771 -2 -839 46 -65 53 -62 490 157 l401
200 -6 65 c-6 62 -20 71 -386 258 -400 204 -444 218 -497 159z m203 -199 c17
14 26 17 19 5 -7 -12 6 -32 28 -46 23 -14 36 -17 29 -6 -7 11 29 -2 79 -28 50
-27 104 -49 119 -49 15 0 34 -10 42 -23 9 -15 5 -18 -12 -7 -17 10 -21 8 -12
-6 7 -12 25 -18 38 -13 14 6 43 -4 65 -22 21 -18 28 -27 15 -20 -13 6 -37 -7
-53 -30 -37 -53 -328 -205 -357 -186 -13 8 -16 4 -8 -10 8 -13 6 -23 -4 -23
-20 0 -48 69 -49 115 -1 153 10 369 19 349 8 -21 16 -21 42 0z"/>
<path d="M2855 3518 c-1110 -162 -1386 -1650 -403 -2162 1034 -538 2130 594
1543 1594 -200 340 -686 624 -1005 587 -11 -1 -72 -9 -135 -19z m315 -172 c91
-14 116 -19 164 -36 25 -8 50 -13 56 -12 6 2 33 -21 61 -50 27 -30 49 -48 49
-40 0 23 122 -49 133 -79 6 -16 19 -24 28 -19 16 11 48 -26 49 -55 0 -8 7 -15
15 -15 25 0 90 -74 104 -118 8 -23 22 -42 31 -42 10 0 14 -18 10 -41 -4 -22 1
-35 11 -28 10 6 19 -1 19 -15 0 -15 16 -58 37 -96 20 -39 34 -97 32 -130 -2
-33 6 -73 19 -89 17 -22 16 -25 -3 -14 -31 19 -32 -2 -2 -86 18 -52 17 -69 -5
-83 -23 -14 -23 -21 -2 -35 20 -13 19 -28 -5 -74 -23 -44 -24 -61 -5 -72 17
-11 13 -24 -16 -48 -22 -17 -29 -26 -16 -20 46 23 -162 -323 -219 -365 -19
-15 -35 -40 -35 -56 0 -17 -8 -25 -19 -19 -10 7 -28 -4 -39 -24 -19 -30 -24
-31 -41 -5 -17 24 -20 22 -21 -15 0 -27 -12 -45 -30 -45 -16 0 -30 -9 -30 -19
0 -11 -14 -14 -31 -8 -17 7 -42 -1 -55 -18 -29 -36 -103 -65 -83 -33 8 13 -6
11 -34 -4 -26 -15 -53 -27 -60 -27 -8 -1 -20 -7 -28 -15 -7 -8 -40 -9 -71 -3
-37 8 -58 4 -58 -10 0 -13 -10 -23 -21 -23 -12 0 -16 8 -10 19 16 25 -170 36
-213 12 -25 -14 -45 -9 -75 18 -31 28 -41 31 -43 9 -1 -20 -4 -21 -11 -3 -6
14 -27 25 -47 25 -21 0 -51 13 -67 30 -17 16 -42 25 -57 20 -15 -6 -66 25
-113 70 -48 44 -96 80 -107 80 -11 0 -15 14 -8 31 6 17 4 27 -4 21 -19 -12
-124 95 -124 126 0 12 -8 22 -17 22 -17 0 -66 89 -75 137 -3 16 -23 70 -45
120 -42 97 -34 568 9 600 10 7 21 27 24 43 13 62 106 181 130 167 17 -11 17
-6 -2 17 -21 26 -20 33 5 43 17 6 31 21 31 33 0 28 80 108 125 125 19 8 35 23
35 34 0 11 14 14 31 8 19 -8 29 -2 25 16 -4 15 9 26 29 24 19 -1 30 4 25 13
-13 21 103 67 129 51 12 -8 16 -1 10 15 -10 26 8 33 96 36 19 0 35 8 35 18 0
10 17 15 37 11 20 -4 49 1 65 12 25 17 100 12 288 -17z"/>
<path d="M2802 3035 c-1 -19 -14 -35 -29 -35 -15 0 -43 -18 -63 -40 -19 -21
-43 -34 -53 -28 -10 6 -16 4 -12 -6 3 -9 -15 -36 -40 -61 -45 -45 -63 -98 -25
-75 11 7 14 -1 8 -19 -7 -17 -20 -31 -30 -31 -10 0 -18 -9 -18 -19 0 -11 12
-15 27 -9 34 13 102 -122 80 -157 -9 -14 -18 -38 -20 -54 -3 -17 -19 -40 -36
-53 -18 -13 -31 -49 -31 -81 1 -31 1 -145 1 -252 1 -239 0 -238 120 -326 72
-53 109 -67 146 -58 35 9 55 2 70 -24 12 -20 22 -26 22 -12 1 14 11 25 22 25
12 0 15 -10 8 -22 -10 -16 -3 -16 27 0 31 16 43 15 51 -3 8 -20 10 -20 11 0 1
14 15 25 30 25 16 0 33 -11 39 -25 8 -20 10 -20 11 0 1 14 25 25 52 25 28 0
50 10 50 21 0 12 8 17 17 11 24 -15 186 127 172 150 -6 10 -3 18 8 18 25 0 14
101 -13 117 -11 8 -27 38 -35 68 -7 30 -21 50 -31 44 -33 -21 -18 18 37 98 94
136 79 673 -18 673 -11 0 -13 11 -5 25 8 14 7 19 -1 11 -8 -7 -51 9 -95 36
-60 38 -86 45 -106 28 -19 -16 -30 -16 -40 0 -10 16 -22 15 -42 -1 -21 -18
-28 -18 -28 0 0 17 -33 23 -110 18 -61 -4 -114 2 -118 13 -5 11 -10 4 -10 -15z
m468 -195 c17 -27 18 -511 1 -538 -8 -13 -88 -22 -202 -22 l-189 0 0 -110 0
-110 189 0 c213 0 260 -29 213 -133 -21 -46 -27 -47 -281 -47 -313 0 -301 -12
-301 290 0 290 0 290 221 290 l179 0 0 110 0 110 -169 0 c-209 0 -266 38 -210
141 23 44 523 61 549 19z"/>
<path d="M604 3092 c-69 -26 -146 -64 -170 -84 -346 -287 -435 -632 -254 -987
339 -664 1319 -495 1440 248 89 548 -495 1021 -1016 823z m196 -152 c0 -11
-18 -31 -40 -45 -22 -13 -40 -32 -40 -41 0 -25 -54 -74 -67 -61 -14 15 -15 -1
-26 -373 -10 -366 -1 -429 67 -492 29 -26 44 -49 34 -49 -10 -1 -3 -8 16 -15
24 -10 29 -23 17 -43 -16 -25 -23 -25 -53 0 -22 18 -30 20 -21 4 10 -16 4 -25
-17 -25 -20 0 -27 9 -18 23 10 16 3 19 -22 10 -49 -19 -249 121 -217 153 5 6
-9 16 -31 24 -24 7 -42 30 -42 53 0 25 -9 34 -23 25 -13 -8 -18 -5 -11 6 7 11
-5 52 -26 91 -25 47 -36 100 -32 158 11 135 36 257 53 257 9 0 22 28 29 61 8
34 26 67 42 72 15 6 28 24 28 40 0 16 8 24 18 18 10 -6 23 3 29 19 7 17 30 30
52 30 23 0 39 11 36 25 -3 14 14 24 40 23 25 0 40 4 34 10 -13 13 104 58 156
60 19 1 35 -7 35 -18z m266 -33 c9 -15 25 -27 36 -27 11 0 15 9 8 20 -7 12 8
11 38 -3 28 -12 45 -32 38 -43 -7 -11 -3 -14 9 -7 33 20 205 -163 205 -217 0
-17 8 -30 18 -30 10 0 13 -19 7 -43 -8 -31 -4 -39 13 -28 32 19 20 -300 -14
-361 -12 -24 -17 -48 -10 -55 7 -7 1 -13 -14 -13 -15 0 -21 -6 -14 -13 7 -7
-5 -29 -28 -49 -23 -20 -36 -45 -29 -57 12 -19 -14 -30 -55 -23 -10 2 -12 -6
-5 -16 14 -23 -128 -125 -152 -110 -10 6 -17 0 -17 -13 0 -15 -18 -19 -52 -10
-31 7 -65 2 -85 -13 -28 -21 -27 -18 2 16 19 23 35 48 35 55 0 8 18 39 41 69
28 38 43 98 50 195 13 180 13 161 7 299 -3 66 2 141 11 168 9 29 8 42 -4 35
-11 -7 -15 8 -10 36 6 34 -13 77 -64 144 -41 53 -64 99 -52 103 12 4 16 16 10
25 -6 10 5 13 25 5 20 -7 43 -25 52 -39z m-142 -153 c20 -21 24 -108 16 -405
l-10 -379 -65 -6 c-55 -6 -68 2 -85 46 -27 70 -26 681 1 731 24 45 103 52 143
13z"/>
<path d="M4885 3093 c-546 -208 -687 -899 -261 -1283 632 -572 1580 150 1196
910 -168 334 -592 503 -935 373z m640 -271 c-3 -12 4 -22 15 -22 11 0 20 -14
20 -31 0 -17 9 -26 20 -19 12 7 15 23 7 34 -8 14 -4 16 10 8 13 -8 19 -22 13
-32 -6 -9 13 -44 41 -77 28 -34 55 -82 60 -107 43 -212 53 -336 27 -336 -11 0
-15 -8 -9 -19 20 -32 -72 -187 -170 -286 -85 -87 -95 -92 -105 -54 -9 36 -7
38 21 15 28 -22 31 -21 20 8 -7 19 -5 40 6 47 10 6 19 51 19 99 0 48 9 111 20
140 11 29 13 48 4 42 -9 -5 -15 105 -13 244 3 248 -10 314 -66 350 -43 28 -28
54 20 35 25 -9 43 -27 40 -39z m-780 -47 c-11 -42 -9 -43 27 -15 35 27 36 27
12 -3 -14 -19 -20 -54 -14 -81 7 -27 15 -66 19 -87 3 -22 17 -37 29 -34 13 3
7 -26 -15 -70 -53 -102 -65 -241 -20 -213 16 10 20 1 12 -29 -6 -24 -3 -38 7
-32 10 6 18 -3 18 -20 0 -17 -14 -31 -31 -31 -23 0 -28 -12 -19 -40 7 -23 4
-40 -9 -40 -11 0 -21 -36 -21 -80 0 -44 9 -80 20 -80 11 0 20 15 20 33 0 19 5
28 12 22 6 -7 6 -30 -1 -52 -16 -51 -71 -35 -71 20 0 22 -9 34 -20 27 -11 -7
-20 2 -20 19 0 17 -10 31 -23 31 -13 0 -19 5 -12 11 6 6 -10 34 -36 62 -25 27
-47 65 -49 83 -13 193 -7 342 16 369 18 21 19 36 5 44 -14 9 -11 24 9 44 16
16 30 43 30 58 0 16 10 29 22 29 12 0 40 23 62 50 48 62 55 63 41 5z m635
-384 c12 -459 28 -431 -251 -431 -233 0 -280 27 -231 133 19 43 33 47 162 47
l140 0 0 70 0 70 -139 0 c-160 0 -206 38 -163 133 19 43 33 47 162 47 l140 0
0 70 0 70 -129 0 c-167 0 -222 45 -170 142 19 36 40 39 245 34 l224 -6 10
-379z"/>
</g>
</svg>
