<?xml version="1.0" standalone="no"?>
<!DOCTYPE svg PUBLIC "-//W3C//DTD SVG 20010904//EN"
 "http://www.w3.org/TR/2001/REC-SVG-20010904/DTD/svg10.dtd">
<svg version="1.0" xmlns="http://www.w3.org/2000/svg"
 width="300.000000pt" height="300.000000pt" viewBox="0 0 300.000000 300.000000"
 preserveAspectRatio="xMidYMid meet">
<metadata>
Created by potrace 1.10, written by Peter Selinger 2001-2011
</metadata>
<g transform="translate(0.000000,300.000000) scale(0.050000,-0.050000)"
fill="#0084ff" stroke="none">
<path d="M2500 5960 c-49 -9 -112 -21 -140 -26 -1046 -205 -2002 -1119 -2258
-2160 -103 -416 -110 -719 -17 -661 10 6 1 24 -19 40 -20 17 -25 25 -12 18 13
-6 29 7 36 29 7 22 20 40 30 40 19 0 13 -182 -7 -216 -8 -12 -5 -26 5 -33 11
-7 12 -35 2 -70 -9 -32 -12 -63 -6 -68 5 -6 12 -40 15 -77 3 -36 1 -50 -3 -31
-5 20 -19 30 -31 22 -14 -9 -17 -2 -9 20 8 22 2 39 -16 46 -16 6 -25 19 -19
29 6 10 1 18 -13 18 -24 0 -16 -292 11 -430 266 -1331 1486 -2430 2697 -2430
l121 0 -53 56 c-68 71 -68 85 1 65 31 -8 73 -9 95 -1 34 12 162 14 296 3 20
-2 31 -12 25 -22 -7 -11 -27 -14 -45 -7 -22 9 -28 5 -18 -11 9 -14 3 -39 -11
-57 -25 -29 -11 -31 153 -20 1273 86 2418 1143 2642 2438 36 211 32 518 -6
433 -13 -29 -35 -60 -50 -68 -14 -9 -20 -8 -12 0 8 9 6 33 -5 54 -14 26 -14
37 2 37 15 0 20 34 16 95 -7 90 -5 95 41 88 l48 -7 -12 197 c-75 1190 -985
2277 -2182 2606 -272 74 -688 101 -676 44 4 -19 -6 -24 -28 -15 -26 10 -29 7
-13 -13 17 -19 3 -26 -64 -31 -80 -5 -160 40 -131 74 16 19 -279 20 -380 2z
m770 -260 c1221 -133 2134 -972 2402 -2210 51 -233 51 -752 0 -980 -5 -22 -19
-85 -31 -140 -222 -995 -1128 -1866 -2123 -2038 -1519 -264 -2859 651 -3190
2178 -51 233 -51 750 0 980 108 491 272 851 550 1200 571 720 1490 1108 2392
1010z"/>
<path d="M2675 4789 c-30 -17 -59 -50 -64 -75 -12 -54 -29 -241 -30 -329 -1
-45 -11 -65 -32 -65 -17 0 -66 -18 -110 -41 l-80 -40 -44 42 c-291 276 -325
277 -599 3 -282 -282 -282 -273 -4 -589 l49 -55 -41 -79 c-22 -44 -40 -92 -40
-107 0 -22 -47 -32 -192 -43 -304 -22 -308 -28 -308 -411 0 -383 4 -389 308
-411 145 -11 192 -21 192 -43 0 -15 19 -64 42 -110 23 -45 34 -87 24 -94 -67
-46 -246 -303 -246 -353 0 -83 406 -489 489 -489 50 0 307 179 353 246 7 10
49 -1 94 -24 46 -23 96 -42 113 -42 21 0 31 -20 32 -65 1 -88 18 -275 30 -330
33 -153 745 -153 778 0 12 55 29 242 30 330 1 45 11 65 32 65 17 0 67 19 113
42 45 23 87 34 94 24 46 -67 303 -246 353 -246 83 0 489 406 489 489 0 50
-179 307 -246 353 -10 7 1 49 24 94 23 46 42 95 42 111 0 21 48 31 203 42 292
21 297 28 297 395 0 402 -2 405 -308 427 -145 11 -192 21 -192 43 0 15 -18 63
-41 107 l-40 80 42 44 c276 291 277 325 3 599 -274 274 -308 273 -598 -2 l-45
-43 -75 41 c-42 22 -91 40 -111 40 -26 0 -35 17 -36 65 -1 88 -18 275 -30 330
-22 103 -558 158 -714 74z m457 -342 c19 -317 25 -330 175 -378 56 -19 158
-60 225 -92 145 -69 157 -66 321 76 147 127 136 126 231 33 96 -93 96 -86 -31
-233 -144 -166 -145 -171 -65 -350 37 -84 78 -186 91 -226 37 -117 53 -123
378 -144 l68 -5 0 -128 0 -128 -78 -4 c-317 -19 -330 -25 -378 -175 -19 -56
-60 -158 -92 -225 -69 -145 -66 -157 76 -321 127 -147 126 -136 33 -231 -93
-96 -86 -96 -233 31 -164 142 -176 145 -321 76 -67 -32 -169 -73 -225 -92
-150 -48 -156 -61 -175 -380 l-4 -78 -128 0 -128 0 -4 78 c-19 308 -29 333
-145 370 -40 13 -142 54 -226 91 -179 80 -184 79 -350 -65 -147 -127 -136
-126 -231 -33 -96 93 -96 86 31 233 142 164 145 176 76 321 -32 67 -73 169
-92 225 -48 150 -62 157 -358 174 l-98 6 0 127 0 127 88 6 c300 20 322 30 368
172 19 58 60 160 92 227 69 145 66 157 -76 321 -127 147 -126 136 -33 231 93
96 86 96 233 -31 164 -142 176 -145 321 -76 67 32 169 73 225 92 151 49 149
44 177 381 3 44 7 80 8 80 1 0 58 -1 126 -3 l124 -3 4 -77z"/>
<path d="M2790 3701 c-528 -177 -695 -792 -324 -1195 389 -422 1074 -257 1242
300 161 535 -390 1072 -918 895z m440 -323 c380 -241 221 -818 -226 -818 -475
0 -620 629 -195 846 106 53 314 40 421 -28z"/>
<path d="M5894 5407 c-7 -7 -3 -30 9 -52 19 -37 16 -40 -31 -31 -44 9 -52 3
-52 -37 0 -26 9 -47 19 -47 11 0 15 14 8 30 -7 19 1 30 21 30 29 0 41 -24 34
-66 -2 -10 5 -12 14 -7 9 6 14 49 10 96 -7 90 -12 104 -32 84z"/>
<path d="M5951 5141 c-8 -12 -24 -16 -37 -8 -13 7 -17 6 -9 -3 8 -9 6 -26 -4
-39 -12 -14 -12 -34 0 -52 14 -23 18 -19 19 17 0 30 8 41 23 32 14 -8 18 -5
10 7 -7 12 -2 26 12 31 14 4 19 15 12 23 -7 7 -19 4 -26 -8z"/>
<path d="M5844 5032 c8 -9 5 -35 -6 -56 -18 -34 -16 -37 15 -19 40 20 50 23
97 23 17 0 30 14 30 31 0 29 -3 29 -32 -1 -30 -29 -36 -29 -75 4 -24 19 -37
28 -29 18z"/>
<path d="M5903 4858 c-19 -51 -6 -158 20 -158 10 0 12 24 4 53 -11 44 -7 51
20 41 18 -7 33 -5 33 4 0 10 -14 23 -32 30 -18 7 -27 25 -21 42 7 17 7 30 2
30 -6 0 -17 -19 -26 -42z"/>
</g>
</svg>
